<svg xmlns="http://www.w3.org/2000/svg" width="59.992" height="64.008" viewBox="0 0 59.992 64.008">
  <g id="Vector_Smart_Object" data-name="Vector Smart Object" transform="translate(-1058.626 -299.581)">
    <ellipse id="Ellipse_65" data-name="Ellipse 65" cx="13.968" cy="13.405" rx="13.968" ry="13.405" transform="translate(1089.98 335.593)" fill="#fff"/>
    <g id="Group_229" data-name="Group 229">
      <rect id="Rectangle_97" data-name="Rectangle 97" width="7.763" height="7.968" transform="translate(1066.063 310.448)" fill="#b8d8fe"/>
      <rect id="Rectangle_98" data-name="Rectangle 98" width="7.763" height="7.968" transform="translate(1066.063 325.535)" fill="#b8d8fe"/>
      <rect id="Rectangle_99" data-name="Rectangle 99" width="7.763" height="7.968" transform="translate(1066.063 340.622)" fill="#b8d8fe"/>
      <path id="Path_255" data-name="Path 255" d="M1103.875,362.886h-44.547v-62.6h47.857v31.693" fill="none" stroke="#007afe" stroke-linecap="round" stroke-linejoin="round" stroke-width="1.406"/>
      <path id="Path_256" data-name="Path 256" d="M1073.8,313.522v4.734h-7.732v-7.648h4.661" fill="none" stroke="#007afe" stroke-linecap="round" stroke-linejoin="round" stroke-width="1.406"/>
      <path id="Path_257" data-name="Path 257" d="M1073.8,328.609v4.734h-7.732v-7.648h4.661" fill="none" stroke="#007afe" stroke-linecap="round" stroke-linejoin="round" stroke-width="1.406"/>
      <path id="Path_258" data-name="Path 258" d="M1073.8,343.5v4.734h-7.732V340.59h4.661" fill="none" stroke="#007afe" stroke-linecap="round" stroke-linejoin="round" stroke-width="1.406"/>
      <line id="Line_184" data-name="Line 184" x2="18.499" transform="translate(1073.798 318.256)" fill="none" stroke="#007afe" stroke-linecap="round" stroke-linejoin="round" stroke-width="1.413"/>
      <line id="Line_185" data-name="Line 185" x2="16.181" transform="translate(1073.798 333.343)" fill="none" stroke="#007afe" stroke-linecap="round" stroke-linejoin="round" stroke-width="1.413"/>
      <line id="Line_186" data-name="Line 186" x2="9.25" transform="translate(1073.798 348.238)" fill="none" stroke="#007afe" stroke-linecap="round" stroke-linejoin="round" stroke-width="1.413"/>
      <path id="Path_259" data-name="Path 259" d="M1068.543,314.432l1.226,1.546,1.577-2.738" fill="none" stroke="#007afe" stroke-linecap="round" stroke-linejoin="round" stroke-width="1.406"/>
      <path id="Path_260" data-name="Path 260" d="M1068.543,329.5l1.226,1.546,1.577-2.738" fill="none" stroke="#007afe" stroke-linecap="round" stroke-linejoin="round" stroke-width="1.406"/>
      <path id="Path_261" data-name="Path 261" d="M1068.543,344.236l1.226,1.546,1.577-2.738" fill="none" stroke="#007afe" stroke-linecap="round" stroke-linejoin="round" stroke-width="1.406"/>
      <path id="Path_262" data-name="Path 262" d="M1103.875,340.1l2.921,5.855,6.532.939-4.727,4.558,1.116,6.436-5.843-3.038-5.843,3.038,1.116-6.436-4.727-4.558,6.533-.939Z" fill="#007afe" stroke="#007afe" stroke-miterlimit="10" stroke-width="1.406"/>
      <path id="Path_263" data-name="Path 263" d="M1091.693,355.906a13.713,13.713,0,0,1-1.858-6.909,14.041,14.041,0,1,1,14.04,13.888" fill="none" stroke="#007afe" stroke-linecap="round" stroke-linejoin="round" stroke-width="1.406"/>
    </g>
  </g>
</svg>
