<svg xmlns="http://www.w3.org/2000/svg" width="57.196" height="64.211" viewBox="0 0 57.196 64.211">
  <g id="Vector_Smart_Object_copy_19" data-name="Vector Smart Object copy 19" transform="translate(-197.78 -94.446)">
    <path id="Path_240" data-name="Path 240" d="M218.377,98.764l-2.663,3.973-1.068,2.454v21.967l1.068,5.2,4.44,3.914,4.146,1.811h4.857l4.5-2.571,3.672-4.148,1.3-5.842-.415-8.062v-11.13l-1.2-3.943-2.237-3.272-3.257-2.38-4.264-1.009-5.271,1.009Z" fill="#b8d8fe"/>
    <path id="Path_241" data-name="Path 241" d="M206.844,122.834h7.565l.474,5.434,1.6,4.732s5.863,7.477,14.984,4.118c0,0,8.351-3.125,6.811-14.284h7.344s3.2,21.325-19.246,23.252C226.375,146.086,205.438,143.457,206.844,122.834Z" fill="#fff"/>
    <g id="Group_224" data-name="Group 224">
      <path id="Path_242" data-name="Path 242" d="M237.9,158.357H225.439q-5.292,0-10.584,0a1.007,1.007,0,0,1-.9-.44.677.677,0,0,1,.038-.71c.116-.192.287-.4.847-.4,1.328,0,2.649.005,3.97.005h6.747v-9.94l-.932-.191c-.4-.082-.8-.154-1.188-.224a21.548,21.548,0,0,1-11.984-6.193,20.979,20.979,0,0,1-5.02-9.889,25.381,25.381,0,0,1-.373-6.2c.011-.516.02-1.027.024-1.537,0-.462.508-.633.847-.635Q207.965,122,209,122L212,122h1.878v-1.893q0-1.933.012-3.867v-.061c.012-2.8.025-5.7-.025-8.55a12.445,12.445,0,0,1,3.262-8.676,12.3,12.3,0,0,1,7.772-3.964,1.7,1.7,0,0,0,.4-.095h2.263c.2.04.4.078.6.117.5.095.971.184,1.428.305a12.292,12.292,0,0,1,9.286,11.889c.015,3.019.011,6.123.008,8.862,0,0,0,2.839,0,3.976V122h4.82q1,0,2,0a1.169,1.169,0,0,1,.773.229.979.979,0,0,1,.214.717c0,.45,0,.9,0,1.349a33.72,33.72,0,0,1-.347,6.075,20.258,20.258,0,0,1-16.885,16.057c-.274.037-.549.077-.834.117l-1.425.2v10.066l7.037,0q1.868,0,3.735.006a.937.937,0,0,1,.794.366.686.686,0,0,1,.055.67.769.769,0,0,1-.7.506Zm-30.27-33.676c-.35,8.311,2.918,14.4,9.712,18.083a19.164,19.164,0,0,0,9.175,2.484,18.7,18.7,0,0,0,11.214-3.966c5.3-3.917,7.783-9.508,7.364-16.616l-.064-1.088h-6.274l.092,1.239a12.679,12.679,0,0,1-2.981,9.81,12.272,12.272,0,0,1-9.356,4.32l-.23,0a12.059,12.059,0,0,1-7.965-2.918c-3.318-2.795-4.764-6.465-4.421-11.221l.089-1.236h-6.309Zm18.662-28.243c-.185,0-.373,0-.559.014a10.79,10.79,0,0,0-10.273,10.383c-.066,6.725-.066,13.514,0,20.179a10.888,10.888,0,0,0,10.418,10.393q.2.007.4.007a10.854,10.854,0,0,0,11.03-10.854c.008-2.209.006-4.454,0-6.624l0-3.009c0-.715,0-2.221,0-2.221,0-1.673,0-3.4-.008-5.105,0-.217,0-.434,0-.651v-.093a25.075,25.075,0,0,0-.134-3.169A10.822,10.822,0,0,0,226.294,96.438Z" fill="#007afe" stroke="#007afe" stroke-miterlimit="10" stroke-width="0.597"/>
      <path id="Path_243" data-name="Path 243" d="M199.059,117.765a.863.863,0,0,1-.3-.06.767.767,0,0,1-.5-.784c-.008-.988-.006-2,0-2.971l0-1.321q0-2.164,0-4.328v-.048c0-3.912.009-7.956-.022-11.937-.008-.964.255-1.242.564-1.422h.475c.307.18.57.459.564,1.425-.026,4.711-.023,9.479-.021,14.09q0,3.2,0,6.392C199.81,117.368,199.5,117.765,199.059,117.765Z" fill="#007afe" stroke="#007afe" stroke-miterlimit="10" stroke-width="0.896"/>
      <path id="Path_244" data-name="Path 244" d="M253.756,117.765a.863.863,0,0,1-.3-.06.782.782,0,0,1-.5-.784c-.008-1.013-.007-2.045,0-3.043v-1.249q0-2.162,0-4.323c0-3.92.009-7.974-.022-11.99-.008-.963.255-1.242.564-1.422h.475c.307.18.57.459.564,1.425-.026,4.711-.024,9.479-.021,14.09v.646q0,2.872,0,5.745C254.507,117.368,254.2,117.765,253.756,117.765Z" fill="#007afe" stroke="#007afe" stroke-miterlimit="10" stroke-width="0.896"/>
      <path id="Path_245" data-name="Path 245" d="M206.841,111.98c-.486,0-.777-.353-.778-.943-.005-3.114-.005-6.24,0-9.292,0-.589.292-.94.778-.94.705.007.784.685.785.977q.006,1.629,0,3.258v2.8q0,1.586,0,3.168c0,.291-.079.97-.776.975Z" fill="#007afe" stroke="#007afe" stroke-miterlimit="10" stroke-width="0.896"/>
      <path id="Path_246" data-name="Path 246" d="M245.9,111.98c-.463-.005-.766-.365-.769-.918-.006-1.056,0-2.112,0-3.168v-3.282q0-1.418,0-2.836c0-.291.079-.967.777-.971.49,0,.785.354.786.946.006,3.159.006,6.285,0,9.292,0,.57-.307.938-.778.938Z" fill="#007afe" stroke="#007afe" stroke-miterlimit="10" stroke-width="0.896"/>
    </g>
  </g>
</svg>
