<svg id="Vector_Smart_Object" data-name="Vector Smart Object" xmlns="http://www.w3.org/2000/svg" xmlns:xlink="http://www.w3.org/1999/xlink" width="263.013" height="80.573" viewBox="0 0 263.013 80.573">
  <defs>
    <clipPath id="clip-path">
      <rect id="Rectangle_136" data-name="Rectangle 136" width="263.014" height="80.573" fill="none"/>
    </clipPath>
  </defs>
  <g id="Group_268" data-name="Group 268">
    <g id="Group_267" data-name="Group 267" clip-path="url(#clip-path)">
      <path id="Path_416" data-name="Path 416" d="M122.555,58.482c-1.371-2.042-.153-9.009.928-10.952a35.837,35.837,0,0,0-.928,10.952" fill="#fff"/>
      <path id="Path_417" data-name="Path 417" d="M146.618,29.781C137,35.126,131.692,38.4,130.254,42.658a16.281,16.281,0,0,1-.924-4.243c.461-.483.938-.961,1.453-1.437l-.007-.014a38.188,38.188,0,0,1,5.141-3.625c10.343-6.216,18.868-11.446,18.864-21.97-.872,9.487-9.109,15.27-18.809,20.729a36.7,36.7,0,0,0-5.658,3.827,15.6,15.6,0,0,1-.626-6.659,21.686,21.686,0,0,1,1.493-4.457,22.581,22.581,0,0,1,6.217-8.431,25.532,25.532,0,0,1,6.5-3.932C154.482,7.937,156.766,0,156.766,0s6.3,20.671-10.148,29.781m-18.195,9.553c-4.407,4.408-7.516,10.718-7.262,16.824a6.494,6.494,0,1,0,12.976-.563c-.242-5.607-5.3-9.685-5.714-16.261m-5.211,13.6a25.144,25.144,0,0,0,.124,3.928c-1.232-1.523-.376-6.9.5-8.418a29.829,29.829,0,0,0-.624,4.489" fill="#1a1818"/>
      <path id="Path_418" data-name="Path 418" d="M16.243,57.052c0,4.172.5,4.883,3.947,4.883v.876H8.973v-.876c3.449,0,3.947-.71,3.947-4.883V53L6.025,42.28C4.238,39.527,2.949,38.65,0,38.65v-.877H11.84v.877c-3.491,0-3.491,1.252-2.243,3.171L15.578,51l6.066-9.18C23.1,39.568,22.89,38.65,19.4,38.65v-.877h9.722v.877c-3.491,0-4.362,1.168-6.023,3.629L16.243,52.712ZM35.2,63.52a9.751,9.751,0,1,1,10.137-9.765A9.981,9.981,0,0,1,35.2,63.52m0-17.9c-4.9,0-6.73,4.549-6.73,8.137,0,3.63,1.827,8.137,6.73,8.137s6.731-4.507,6.731-8.137c0-3.588-1.829-8.137-6.731-8.137M58.524,61.642c2.908,0,5.07-1.669,5.07-5.3V50.418c0-4.173-.5-4.84-3.283-4.84v-.836h8.474v.836c-2.74,0-3.282.667-3.282,4.84V56.05c0,4.883-3.365,7.427-7.436,7.427s-7.4-2.544-7.4-7.427V50.418c0-4.173-.5-4.84-3.282-4.84v-.836h9.515v.836c-2.741,0-3.283.667-3.283,4.84v5.924c0,3.631,2,5.3,4.9,5.3M71.557,45.577v-.836h5.111l11.05,13.187V50.418c0-4.173-.5-4.84-3.282-4.84v-.836h8.1v.836c-2.785,0-3.282.667-3.282,4.84V63.477h-.789L76.376,48.915v8.179c0,4.173.5,4.881,3.282,4.881v.835h-8.1v-.835c2.784,0,3.282-.708,3.282-4.881V50.418c0-4.173-.5-4.84-3.282-4.84M103.439,63.52a9.75,9.75,0,0,1,0-19.487,7.488,7.488,0,0,1,5.483,2.755,6.813,6.813,0,0,0,.748-2.046h.789v7.219h-.83c-.789-3.881-2.991-6.342-6.19-6.342-4.653,0-6.108,4.632-6.108,8.137,0,3.547,1.455,8.137,6.108,8.137,2.077,0,5.274-1.294,5.274-3.548,0-1.669-1.537-2.545-3.571-2.545v-.835h9.18V55.8c-2.783,0-3.282.71-3.282,4.881v1.253c-2.618,0-5.193,1.586-7.6,1.586" fill="#1a1818"/>
      <path id="Path_419" data-name="Path 419" d="M143.056,61.934c3.447,0,3.946-.71,3.946-4.883V43.49c0-4.173-.5-4.84-3.946-4.84v-.876h11.216v.876c-3.449,0-3.947.667-3.947,4.84V56.426c0,4.173.5,4.841,3.947,4.841h1.712c3.781,0,4.238-.96,4.778-3.172l.208-.835h.872l-.332,5.55H143.056Zm21.492.876v-.835c2.783,0,3.282-.708,3.282-4.881V50.418c0-4.173-.5-4.84-3.282-4.84v-.836h9.514v.836c-2.783,0-3.283.667-3.283,4.84v6.676c0,4.173.5,4.881,3.283,4.881v.835ZM193.24,49.249,187.091,63.52h-.54L180.4,49.249c-1.329-3.171-1.869-3.671-4.03-3.671v-.836h9.307v.836c-2.992,0-3.282.75-2.244,3.171l4.237,9.847,4.2-9.847c1.08-2.463,1.08-3.171-2.2-3.171v-.836h7.811v.836c-2.535,0-2.909.5-4.238,3.671m6.693,13.561v-.835c2.783,0,3.283-.708,3.283-4.881V50.418c0-4.173-.5-4.84-3.283-4.84v-.836h9.514v.836c-2.783,0-3.282.667-3.282,4.84v6.676c0,4.173.5,4.881,3.282,4.881v.835Zm13.05-17.232v-.836h5.11l11.051,13.187V50.418c0-4.173-.5-4.84-3.283-4.84v-.836h8.1v.836c-2.785,0-3.282.667-3.282,4.84V63.477h-.79L217.8,48.915v8.179c0,4.173.5,4.881,3.283,4.881v.835h-8.1v-.835c2.784,0,3.283-.708,3.283-4.881V50.418c0-4.173-.5-4.84-3.283-4.84M244.864,63.52a9.75,9.75,0,0,1,0-19.487,7.487,7.487,0,0,1,5.483,2.755,6.766,6.766,0,0,0,.749-2.046h.79v7.219h-.832c-.789-3.881-2.991-6.342-6.189-6.342-4.654,0-6.107,4.632-6.107,8.137,0,3.547,1.453,8.137,6.107,8.137,2.078,0,5.277-1.294,5.277-3.548,0-1.668-1.537-2.545-3.574-2.545v-.834h9.183V55.8c-2.785,0-3.283.71-3.283,4.881v1.253c-2.618,0-5.193,1.586-7.6,1.586M255.3,44.63h2.922v.3h-1.286v3.434h-.35V44.934H255.3Zm4.141,0h.515l1.274,3.278,1.27-3.278h.515v3.739h-.35v-3.23h-.011l-1.258,3.23h-.332l-1.263-3.23h-.011v3.23h-.351Z" fill="#1a1818"/>
      <path id="Path_420" data-name="Path 420" d="M62.807,73.226H67.29v.79H63.655v2.247h3.4v.788h-3.4V79.6h3.818v.79H62.807Z" fill="#1a1818"/>
      <path id="Path_421" data-name="Path 421" d="M76.7,74.491a1.482,1.482,0,0,0-1.3-.658c-.747,0-1.52.355-1.52,1.2,0,.658.362.95,1.5,1.316,1.107.354,2.134.718,2.134,2.125,0,1.427-1.218,2.094-2.508,2.094a2.584,2.584,0,0,1-2.2-.992l.727-.6a1.724,1.724,0,0,0,1.522.8c.724,0,1.551-.424,1.551-1.244,0-.88-.593-1.032-1.864-1.457-1.008-.334-1.774-.778-1.774-1.974A2.172,2.172,0,0,1,75.4,73.043a2.443,2.443,0,0,1,2,.841Z" fill="#1a1818"/>
      <path id="Path_422" data-name="Path 422" d="M86.84,74.491a1.481,1.481,0,0,0-1.3-.658c-.747,0-1.522.355-1.522,1.2,0,.658.364.95,1.5,1.316,1.107.354,2.134.718,2.134,2.125,0,1.427-1.218,2.094-2.509,2.094a2.582,2.582,0,0,1-2.2-.992l.727-.6a1.721,1.721,0,0,0,1.52.8c.726,0,1.552-.424,1.552-1.244,0-.88-.595-1.032-1.865-1.457-1.008-.334-1.774-.778-1.774-1.974a2.171,2.171,0,0,1,2.429-2.064,2.436,2.436,0,0,1,1.994.841Z" fill="#1a1818"/>
      <path id="Path_423" data-name="Path 423" d="M93.593,73.226h4.484v.79H94.44v2.247h3.4v.788h-3.4V79.6h3.82v.79H93.593Z" fill="#1a1818"/>
      <path id="Path_424" data-name="Path 424" d="M104.1,73.226h1.068l4.13,5.95h.021v-5.95h.846v7.166H109.1l-4.128-5.951h-.022v5.951H104.1Z" fill="#1a1818"/>
      <path id="Path_425" data-name="Path 425" d="M121.265,74.015h-2.357v6.376h-.846V74.015H115.7v-.79h5.561Z" fill="#1a1818"/>
      <rect id="Rectangle_134" data-name="Rectangle 134" width="0.848" height="7.166" transform="translate(126.799 73.226)" fill="#1a1818"/>
      <path id="Path_426" data-name="Path 426" d="M136.654,74.319h-.021l-1.48,3.521h2.912Zm-.383-1.094h.8l3.031,7.166h-.985l-.724-1.762H134.82l-.736,1.762h-.957Z" fill="#1a1818"/>
      <path id="Path_427" data-name="Path 427" d="M145.583,73.226h.846V79.6h3.264v.79h-4.111Z" fill="#1a1818"/>
      <path id="Path_428" data-name="Path 428" d="M168.628,76.808a2.825,2.825,0,1,0-2.82,2.975,2.826,2.826,0,0,0,2.82-2.975m-6.549,0a3.728,3.728,0,1,1,3.728,3.765,3.628,3.628,0,0,1-3.728-3.765" fill="#1a1818"/>
      <rect id="Rectangle_135" data-name="Rectangle 135" width="0.848" height="7.166" transform="translate(175.433 73.226)" fill="#1a1818"/>
      <path id="Path_429" data-name="Path 429" d="M182.587,73.226h.847V79.6H186.7v.79h-4.111Z" fill="#1a1818"/>
      <path id="Path_430" data-name="Path 430" d="M195.546,74.491a1.482,1.482,0,0,0-1.3-.658c-.746,0-1.522.355-1.522,1.2,0,.658.362.95,1.5,1.316,1.11.354,2.136.718,2.136,2.125,0,1.427-1.22,2.094-2.509,2.094a2.583,2.583,0,0,1-2.2-.992l.724-.6a1.729,1.729,0,0,0,1.522.8c.727,0,1.552-.424,1.552-1.244,0-.88-.595-1.032-1.864-1.457-1.008-.334-1.774-.778-1.774-1.974a2.171,2.171,0,0,1,2.429-2.064,2.435,2.435,0,0,1,1.993.841Z" fill="#1a1818"/>
    </g>
  </g>
</svg>
