<svg xmlns="http://www.w3.org/2000/svg" width="124.999" height="82.001" viewBox="0 0 124.999 82.001">
  <g id="Vector_Smart_Object_copy_10" data-name="Vector Smart Object copy 10" transform="translate(-65.5 -98.517)">
    <rect id="Rectangle_115" data-name="Rectangle 115" width="42.509" height="71.276" transform="translate(147.064 108.02)" fill="#b8d8fe"/>
    <rect id="Rectangle_116" data-name="Rectangle 116" width="8.488" height="7.949" transform="translate(154.569 116.171)" fill="#fff"/>
    <rect id="Rectangle_117" data-name="Rectangle 117" width="8.488" height="7.949" transform="translate(171.747 116.171)" fill="#fff"/>
    <rect id="Rectangle_118" data-name="Rectangle 118" width="8.488" height="7.949" transform="translate(154.569 133.11)" fill="#fff"/>
    <rect id="Rectangle_119" data-name="Rectangle 119" width="8.488" height="7.949" transform="translate(171.747 133.11)" fill="#fff"/>
    <rect id="Rectangle_120" data-name="Rectangle 120" width="8.488" height="7.949" transform="translate(154.569 150.048)" fill="#fff"/>
    <rect id="Rectangle_121" data-name="Rectangle 121" width="8.488" height="7.949" transform="translate(171.747 150.048)" fill="#fff"/>
    <rect id="Rectangle_122" data-name="Rectangle 122" width="42.509" height="71.276" transform="translate(66.508 108.02)" fill="#b8d8fe"/>
    <rect id="Rectangle_123" data-name="Rectangle 123" width="8.488" height="7.949" transform="translate(74.725 116.171)" fill="#fff"/>
    <rect id="Rectangle_124" data-name="Rectangle 124" width="8.488" height="7.949" transform="translate(91.903 116.171)" fill="#fff"/>
    <rect id="Rectangle_125" data-name="Rectangle 125" width="8.488" height="7.949" transform="translate(74.725 133.11)" fill="#fff"/>
    <rect id="Rectangle_126" data-name="Rectangle 126" width="8.488" height="7.949" transform="translate(91.903 133.11)" fill="#fff"/>
    <rect id="Rectangle_127" data-name="Rectangle 127" width="8.488" height="7.949" transform="translate(74.725 150.048)" fill="#fff"/>
    <rect id="Rectangle_128" data-name="Rectangle 128" width="8.488" height="7.949" transform="translate(91.903 150.048)" fill="#fff"/>
    <path id="Path_387" data-name="Path 387" d="M102.634,145.726l14.4-13.8v7.588h21.594v-7.645l14.666,13.953-14.937,13.99.679-7.333H117.573l-.407,7.311Z" fill="#cbe3fe"/>
    <path id="Path_388" data-name="Path 388" d="M103.4,145.728l13.1-12.554v6.872h22.658V133.11l13.362,12.713-13.507,12.651.6-6.518H117.07l-.37,6.65Z" fill="#fff"/>
    <g id="Group_252" data-name="Group 252">
      <path id="Path_389" data-name="Path 389" d="M188.785,180.386c-8.159-.018-16.217-.021-23.708-.021H147.863c-1.455,0-1.588-.132-1.589-1.563,0-3.8,0-7.6,0-11.432v-3.259h1.607v14.511H159v-3.931q0-1.1,0-2.2c0-1.7-.009-3.455.012-5.192.013-1.141.452-1.232,1.069-1.235,2.723-.015,5.483-.023,8.2-.023,2.743,0,5.544.008,8.325.023.786,0,1.04.273,1.046,1.108.015,2.038.013,4.114.01,6.121v.051c0,.874,0,1.727,0,2.58v2.709H188.7v-69.8H147.967v18.752h-1.694v-18.55c0-1.929,0-1.929,1.964-1.969.223,0,.428-.021.665-.04l.027,0,.345-.026,1.238-.085,0-2.988c0-1.282,0-2.547,0-3.811s.2-1.461,1.451-1.462q8.069,0,16.138,0,8.287,0,16.572,0c1.3,0,1.449.147,1.452,1.427s0,2.548,0,3.854v3.011l1.253.073c.3.018.6.021.884.025,1.206.016,1.744.067,2.1.508v72.275a1.82,1.82,0,0,1-1.569.557ZM169.271,178.7h1.33c.308,0,.609,0,.906.007.327,0,.627.007.923.007.623,0,1.106-.015,1.567-.048a2.272,2.272,0,0,0,1.995-1.927c.044-1.976.04-3.9.037-5.947l0-2.966h-6.756Zm-8.5-.092H167.4V167.8H160.77Zm-8.5-71.652h32.222V100.43H152.272Z" fill="#007afe" stroke="#007afe" stroke-miterlimit="10" stroke-width="0.265"/>
      <path id="Path_390" data-name="Path 390" d="M87.646,180.368l-20.523,0c-1.365,0-1.49-.126-1.49-1.5q0-34.69,0-69.379V108.9c0-1.8,0-1.8,1.809-1.828.249,0,.482-.019.752-.036l.417-.026a1.324,1.324,0,0,0,1.256-1.317v-1.755c0-1.315,0-2.618,0-3.921,0-1.223.261-1.356,1.271-1.357q8.217-.007,16.435-.007,8.324,0,16.649.008c1.011,0,1.246.242,1.256,1.289.013,1.3.01,2.591.007,3.954,0,.606,0,1.223,0,1.856a1.326,1.326,0,0,0,1.33,1.319c.235,0,.459,0,.675-.007s.381-.006.555-.006c.235,0,.426.005.6.016,1.057.065,1.059.582,1.06.924.018,5.487.007,11.068,0,16.465l-.005,2.859a.265.265,0,0,1-.266.263h-1.061a.265.265,0,0,1-.266-.264V110.135a1.326,1.326,0,0,0-1.329-1.319H68.61a1.326,1.326,0,0,0-1.33,1.319v67.184a1.326,1.326,0,0,0,1.33,1.319h8.4a1.326,1.326,0,0,0,1.329-1.319l0-4.019c0-1.994-.005-4.056.008-6.081.006-.9.247-1.15,1.124-1.154,2.795-.013,5.571-.019,8.252-.019,2.768,0,5.512.007,8.153.021.689,0,1.107.094,1.117,1.312.016,1.97.012,3.977.009,5.918v.046q0,1.271,0,2.541V177.3a1.326,1.326,0,0,0,1.33,1.319h8.382a1.326,1.326,0,0,0,1.329-1.319v-12.94a.265.265,0,0,1,.266-.264h1.417q.006,7.395,0,14.789c0,1.314-.175,1.48-1.55,1.48ZM81.371,167.8a1.326,1.326,0,0,0-1.33,1.319v8.194a1.326,1.326,0,0,0,1.33,1.319h4.042a1.326,1.326,0,0,0,1.329-1.319v-8.194a1.326,1.326,0,0,0-1.329-1.319ZM89.9,167.8a1.326,1.326,0,0,0-1.33,1.319V177.3a1.326,1.326,0,0,0,1.33,1.319h3.983a1.326,1.326,0,0,0,1.329-1.319v-8.179a1.326,1.326,0,0,0-1.329-1.319ZM72.829,100.428a1.326,1.326,0,0,0-1.33,1.319v3.9a1.326,1.326,0,0,0,1.33,1.319H102.4a1.326,1.326,0,0,0,1.329-1.319v-3.9a1.326,1.326,0,0,0-1.329-1.319Z" fill="#007afe" stroke="#007afe" stroke-miterlimit="10" stroke-width="0.265"/>
      <path id="Path_391" data-name="Path 391" d="M138.643,161.387a.777.777,0,0,1-.311-.08c-.262-.117-.56-.25-.542-1.193.025-1.335.02-2.639.015-4.02v-.163q0-.779,0-1.574v-1.319H118.194v1.319q0,.789,0,1.567v.148c-.006,1.372-.012,2.667.016,4.01.02,1-.3,1.128-.581,1.241a.74.74,0,0,1-.274.064c-.212,0-.515-.2-.927-.608q-3.739-3.72-7.484-7.433l-.612-.607q-2.985-2.962-5.969-5.925c-.914-.908-.916-1.053-.034-1.93q4.583-4.561,9.176-9.111s3.535-3.506,4.978-4.938c.385-.382.67-.568.871-.568a.759.759,0,0,1,.3.078c.268.119.571.254.555,1.182-.022,1.348-.018,2.647-.013,4.022v.178q0,.767,0,1.547v1.319H137.8v-1.319q0-.774,0-1.538v-.161c.005-1.313.011-2.671-.015-4.016-.018-.953.278-1.089.539-1.209a.76.76,0,0,1,.31-.083c.2,0,.483.178.853.545q2.214,2.2,4.43,4.39l.117.116c3.182,3.152,6.472,6.412,9.7,9.626.784.781.785,1,.014,1.763q-4.537,4.52-9.088,9.026l-.073.073q-2.54,2.518-5.078,5.038C139.139,161.209,138.856,161.387,138.643,161.387ZM128.07,151.339c3.449,0,6.957.008,10.427.026.553,0,.868.05.9.986.02.622.015,1.247.01,1.852,0,.283,0,.544,0,.8v3.174l12.494-12.337L139.4,133.462v3.182c0,.233,0,.474,0,.72,0,.572.005,1.14,0,1.706-.019,1.093-.186,1.26-1.271,1.275-.72.01-1.44.013-2.16.013q-.818,0-1.636,0c-.557,0-1.108,0-1.659,0l-8.326,0q-3.174,0-6.349-.006c-1.236,0-1.394-.156-1.409-1.365-.007-.544-.005-1.087,0-1.665l0-.855v-3.186L104.2,145.57l12.4,12.453V154.81c0-.194,0-.4,0-.627v-.037c-.005-.556-.011-1.179.009-1.79.031-.944.311-.987.891-.99C121,151.348,124.56,151.339,128.07,151.339Z" fill="#007afe" stroke="#007afe" stroke-miterlimit="10" stroke-width="0.265"/>
      <path id="Path_392" data-name="Path 392" d="M93.654,125.589c-.506,0-1.011,0-1.517-.014-.784-.017-1.052-.269-1.065-1-.044-2.462-.045-5.072,0-7.98.011-.787.253-1.044,1-1.059,1.349-.028,2.722-.042,4.079-.042s2.716.014,4.075.042c.752.015,1,.271,1.008,1.054.038,2.511.038,5.156,0,7.861-.011.862-.276,1.115-1.18,1.128-.5.007-1.007.01-1.51.01q-.622,0-1.245,0l-1.2,0h-.034c-.4,0-.8,0-1.207,0S94.051,125.589,93.654,125.589Zm-.84-1.7H99.48v-6.645H92.814Z" fill="#007afe" stroke="#007afe" stroke-miterlimit="10" stroke-width="0.265"/>
      <path id="Path_393" data-name="Path 393" d="M157.4,125.588c-.506,0-1.012,0-1.517-.012-.843-.016-1.1-.265-1.116-1.07-.04-2.755-.039-5.44,0-7.98.012-.723.25-.973.944-.987,1.369-.03,2.754-.045,4.116-.045,1.384,0,2.783.016,4.159.046.678.015.923.277.935,1,.043,2.642.043,5.326,0,7.979-.012.786-.287,1.043-1.129,1.058-.5.009-1.009.012-1.514.012q-.567,0-1.134,0h-.081q-.614,0-1.227,0t-1.224,0Q158.006,125.587,157.4,125.588Zm-.863-1.723h6.621v-6.642h-6.621Z" fill="#007afe" stroke="#007afe" stroke-miterlimit="10" stroke-width="0.265"/>
      <path id="Path_394" data-name="Path 394" d="M81.659,125.589c-.407,0-.814,0-1.221,0s-.81,0-1.214,0c-.44,0-.857,0-1.273,0h-.07c-.389,0-.778,0-1.167,0-.522,0-1.043,0-1.565-.015-.77-.016-1.032-.267-1.039-.992-.027-2.768-.027-5.5,0-8.114.009-.759.292-.905.847-.919,1.4-.034,2.833-.052,4.25-.052,1.364,0,2.757.016,4.138.048.565.013.836.155.849.925.052,2.938.05,5.624-.006,8.212-.011.509-.091.872-1.017.892C82.667,125.586,82.163,125.589,81.659,125.589Zm-5.879-1.712h6.715v-6.639H75.779Z" fill="#007afe" stroke="#007afe" stroke-miterlimit="10" stroke-width="0.265"/>
      <path id="Path_395" data-name="Path 395" d="M176.9,125.6c-1.318,0-2.707-.008-4.129-.023-.731-.008-.958-.222-.972-.918-.052-2.653-.052-5.416,0-8.213.012-.672.218-.882.878-.9,1.4-.032,2.825-.048,4.222-.048,1.343,0,2.7.015,4.047.045.576.013.927.093.942,1.091.014.928.01,1.888.006,2.736q0,.595,0,1.19c0,.424,0,.848,0,1.271.005.908.01,1.846-.011,2.769-.016.691-.28.964-.94.972C179.638,125.586,178.277,125.6,176.9,125.6Zm-3.383-1.716h6.69V117.23h-6.69Z" fill="#007afe" stroke="#007afe" stroke-miterlimit="10" stroke-width="0.265"/>
      <path id="Path_396" data-name="Path 396" d="M176.836,159.288c-1.329,0-2.714-.013-4.118-.038-.771-.014-.9-.26-.912-.843-.057-2.818-.056-5.621,0-8.331.012-.546.157-.824.916-.832,1.34-.015,2.722-.022,4.107-.022,1.331,0,2.7.007,4.071.02.732.007.971.258.986,1.032.017.927.013,1.869.009,2.78q0,.635,0,1.266,0,.608,0,1.215c0,.9.008,1.814-.009,2.706-.016.843-.289.991-.893,1C179.654,159.273,178.255,159.288,176.836,159.288Zm-3.377-1.715h6.719V150.92H173.46Z" fill="#007afe" stroke="#007afe" stroke-miterlimit="10" stroke-width="0.265"/>
      <path id="Path_397" data-name="Path 397" d="M81.669,159.284c-.408,0-.816,0-1.223-.007H80.4c-.392,0-.783-.007-1.175-.007h-.036c-.416,0-.833,0-1.249.007s-.818.007-1.227.007c-.6,0-1.088-.007-1.544-.023-.869-.03-1.058-.224-1.064-1.094-.02-2.827-.019-5.4,0-7.874.007-.819.238-1.045,1.075-1.052q1.98-.015,3.961-.015t3.975.014c.868.006,1.071.2,1.085,1.046.045,2.685.045,5.367,0,7.971-.013.761-.145.972-1.046,1C82.717,159.277,82.244,159.284,81.669,159.284Zm-5.907-1.721H82.5v-6.625H75.762Z" fill="#007afe" stroke="#007afe" stroke-miterlimit="10" stroke-width="0.265"/>
      <path id="Path_398" data-name="Path 398" d="M79.118,142.4c-1.373,0-2.754-.007-4.107-.02-.676-.007-.895-.238-.9-.951-.028-2.914-.027-5.567,0-8.111.007-.6.154-.884.969-.9.466-.01.967-.015,1.577-.015q.566,0,1.131,0h.072c.407,0,.811,0,1.216,0h.077c.383,0,.766,0,1.15,0h.077c.428,0,.857,0,1.285,0,.52,0,1.041,0,1.561.015.9.019.946.283.957.787.062,2.835.06,5.676-.007,8.446-.011.438-.077.725-.863.733C81.919,142.4,80.508,142.4,79.118,142.4Zm-3.331-1.632H82.5v-6.726H75.787Z" fill="#007afe" stroke="#007afe" stroke-miterlimit="10" stroke-width="0.265"/>
      <path id="Path_399" data-name="Path 399" d="M174.312,142.4c-.524,0-1.047,0-1.571-.014-.778-.016-.921-.226-.933-.811-.059-2.715-.06-5.518,0-8.328.012-.613.144-.818.9-.826,1.386-.015,2.768-.022,4.107-.022,1.411,0,2.821.008,4.19.025.632.007.869.238.877.852.034,2.7.034,5.471,0,8.229-.005.474-.084.867-.987.883-.522.009-1.044.012-1.567.012q-.587,0-1.174,0h-.084c-.419,0-.836,0-1.254,0s-.847,0-1.265,0h-.073Q174.894,142.4,174.312,142.4Zm-.866-1.67h6.766v-6.648h-6.766Z" fill="#007afe" stroke="#007afe" stroke-miterlimit="10" stroke-width="0.265"/>
      <path id="Path_400" data-name="Path 400" d="M159.9,159.283c-1.419,0-2.855-.015-4.27-.043-.583-.012-.829-.25-.847-.824-.046-1.408-.036-2.809-.026-4.292l0-.651h1.769v4.081H163.2v-6.63h-4.185v-1.655l.723-.008c.66-.008,1.315-.016,1.968-.016,1.071,0,1.941.023,2.738.073.428.027.47.629.473.812.046,3.069.045,5.757,0,8.219-.012.64-.253.883-.89.9C162.658,159.27,161.269,159.283,159.9,159.283Z" fill="#007afe" stroke="#007afe" stroke-miterlimit="10" stroke-width="0.265"/>
      <path id="Path_401" data-name="Path 401" d="M95.721,159.266c-1.382,0-2.646-.012-3.862-.037-.4-.008-.769-.119-.783-.864-.05-2.681-.051-5.445,0-8.216.01-.579.27-.88.773-.892.749-.02,1.565-.028,2.567-.028.619,0,1.245,0,1.881.007l.71,0v1.673H92.816v6.653H99.48v-4.15h1.7c0,.19.007.7.007.7.017,1.6.033,3.11-.048,4.616-.017.319-.23.484-.632.49C98.667,159.253,97.144,159.266,95.721,159.266Z" fill="#007afe" stroke="#007afe" stroke-miterlimit="10" stroke-width="0.265"/>
      <path id="Path_402" data-name="Path 402" d="M94.286,142.4c-1.047,0-1.9-.02-2.682-.063-.142-.008-.52-.029-.532-.87-.044-2.94-.044-5.588,0-8.1.011-.625.178-.944,1.063-.951q1.962-.017,3.925-.016,2.067,0,4.132.017c.963.008.983.444.993.653.067,1.45.054,2.9.039,4.43q0,.333-.006.666H99.443v-4.117H92.812v6.691h4.209v1.634l-.773.008C95.586,142.391,94.933,142.4,94.286,142.4Z" fill="#007afe" stroke="#007afe" stroke-miterlimit="10" stroke-width="0.265"/>
      <path id="Path_403" data-name="Path 403" d="M161.513,142.4c-.593,0-1.191,0-1.8,0l-.649,0v-1.644h4.127v-6.7h-6.667v4.118h-1.749c0-.16-.006-.657-.006-.657-.014-1.536-.027-2.987.037-4.443.007-.174.028-.636.87-.645,1.442-.015,2.876-.023,4.263-.023,1.351,0,2.709.007,4.036.022.686.007.934.254.945.943.048,2.748.047,5.47,0,8.092-.012.675-.266.918-.969.927C163.142,142.4,162.333,142.4,161.513,142.4Z" fill="#007afe" stroke="#007afe" stroke-miterlimit="10" stroke-width="0.265"/>
    </g>
  </g>
</svg>
