<svg xmlns="http://www.w3.org/2000/svg" width="130" height="86.998" viewBox="0 0 130 86.998">
  <g id="Vector_Smart_Object" data-name="Vector Smart Object" transform="translate(-70.862 -94.666)">
    <rect id="Rectangle_107" data-name="Rectangle 107" width="43.678" height="74.886" transform="translate(71.9 104.648)" fill="#b8d8fe"/>
    <ellipse id="Ellipse_77" data-name="Ellipse 77" cx="8.423" cy="8.545" rx="8.423" ry="8.545" transform="translate(156.259 96.103)" fill="#b8d8fe"/>
    <ellipse id="Ellipse_78" data-name="Ellipse 78" cx="8.423" cy="8.545" rx="8.423" ry="8.545" transform="translate(164.682 96.869)" fill="#b8d8fe"/>
    <ellipse id="Ellipse_79" data-name="Ellipse 79" cx="8.423" cy="8.545" rx="8.423" ry="8.545" transform="translate(174.704 97.58)" fill="#b8d8fe"/>
    <g id="Group_249" data-name="Group 249">
      <path id="Path_365" data-name="Path 365" d="M173.819,181.526q-8.512,0-17.023,0c-1.273,0-1.366-.423-1.368-1.118-.018-5.06-.012-10.195-.007-15.16l0-3.08h1.661v17.5h7.027V155.555h1.748V179.7h6.973V126.785h1.758v19.727h6.868l.076-1.3c.008-.148.019-.292.03-.434.025-.344.05-.689.05-1.048q0-3.109-.014-6.219c-.017-4.463-.034-9.07.046-13.595a8.67,8.67,0,0,0-2.331-6.351,8.32,8.32,0,0,0-6.052-2.483c-.113,0-.225,0-.338.006-2.614.1-5.191.144-7.658.144-2.491,0-4.953-.049-7.316-.146-.206-.009-.41-.013-.611-.013-4.7,0-7.828,2.34-8.844,6.6h-1.661a9.361,9.361,0,0,1,2.644-5.361,9.53,9.53,0,0,1,6.553-2.917l1.868-.107-.668-1.772c-.193-.512-.4-1-.6-1.476a14.346,14.346,0,0,1-.949-2.686,9.663,9.663,0,0,1,1.9-8.1,9.422,9.422,0,0,1,7.368-3.533,10.125,10.125,0,0,1,3.245.546,3.8,3.8,0,0,0,1.2.188,4.005,4.005,0,0,0,1.2-.18,10.379,10.379,0,0,1,3.15-.509,10.044,10.044,0,0,1,3.16.525,3.966,3.966,0,0,0,1.214.2,2.847,2.847,0,0,0,1.009-.173,9.41,9.41,0,0,1,3.339-.62,9.588,9.588,0,0,1,7.524,3.708c2.52,3.254,2.681,7.369.441,11.29-.067.117-.128.239-.2.4-.03.062-.064.132-.1.212l-.827,1.659,1.8.331c.306.056.606.105.9.154.59.1,1.141.187,1.654.321a9.546,9.546,0,0,1,7.055,9.08c.025,6.538.018,13.187.012,19.617l0,4.623c0,1.018-.208,1.226-1.231,1.236-.781.008-1.563.01-2.352.01l-1.792,0-1.956,0h-1.366v23.821q0,3.993,0,7.985c0,1.179-.2,1.387-1.348,1.388Q182.244,181.526,173.819,181.526Zm.885-1.825h6.823V148.419H174.7Zm8.684,0h6.9V148.4h-6.9Zm5.812-64.451.97,1.972c1.848,3.761,1.848,3.761,1.848,8.135v21.133h6.491l.344-.872c.011-.027.021-.049.03-.068a1.748,1.748,0,0,0,.192-.769q0-3.016.017-6.029v-.129c.02-5.179.041-10.517-.043-15.772a7.7,7.7,0,0,0-7.566-7.635h0Zm-6.322-.018c-.09,0-.179,0-.269.006l-2.13.09.969,1.926c1.812,3.6,1.864,3.823,1.864,8v21.212h6.929l.075-1.305c.007-.119.014-.225.021-.322.015-.213.029-.414.029-.629v-2.384c0-5.994,0-12.193-.008-18.335a10.982,10.982,0,0,0-.238-2.209A7.708,7.708,0,0,0,182.877,115.229Zm-17.9-17.781a7.84,7.84,0,0,0-7.845,7.94,7.975,7.975,0,0,0,2.277,5.657,7.767,7.767,0,0,0,5.583,2.332h.1A7.966,7.966,0,0,0,165,97.448Zm9.245.132c-.135,0-.269,0-.406.012l-2.322.14,1.251,1.989a9.931,9.931,0,0,1,.026,11.4l-1.256,2.022,2.354.1c.1,0,.2.007.3.007a7.115,7.115,0,0,0,5.106-2.2,8.143,8.143,0,0,0,2.283-5.723C181.527,101.127,178.167,97.58,174.222,97.58Zm8.726-.02q-.177,0-.354.009l-2.328.125,1.246,2a9.987,9.987,0,0,1,.01,11.409l-1.217,1.961,2.279.16q.225.016.447.016c3.89,0,7.313-3.655,7.324-7.822a8.085,8.085,0,0,0-2.319-5.639A7.132,7.132,0,0,0,182.948,97.56Z" fill="#007afe" stroke="#007afe" stroke-miterlimit="10" stroke-width="0.275"/>
      <rect id="Rectangle_108" data-name="Rectangle 108" width="1.497" height="1.529" transform="translate(155.51 126.768)" fill="#007afe" stroke="#007afe" stroke-miterlimit="10" stroke-width="0.275"/>
    </g>
    <path id="Path_366" data-name="Path 366" d="M109.019,144.264l14.792-14.495v7.973H146v-8.033l15.069,14.66-15.348,14.7.7-7.7H124.369l-.419,7.682Z" fill="#cbe3fe"/>
    <path id="Path_367" data-name="Path 367" d="M109.8,144.266l13.461-13.19V138.3h23.281v-7.287l13.73,13.357L146.4,157.657l.62-6.848H123.852l-.381,6.987Z" fill="#fff"/>
    <rect id="Rectangle_109" data-name="Rectangle 109" width="7.96" height="8.075" transform="translate(80.734 113.248)" fill="#fff"/>
    <rect id="Rectangle_110" data-name="Rectangle 110" width="7.96" height="8.075" transform="translate(98.348 113.248)" fill="#fff"/>
    <rect id="Rectangle_111" data-name="Rectangle 111" width="7.96" height="8.075" transform="translate(80.734 131.479)" fill="#fff"/>
    <rect id="Rectangle_112" data-name="Rectangle 112" width="7.96" height="8.075" transform="translate(98.348 131.479)" fill="#fff"/>
    <rect id="Rectangle_113" data-name="Rectangle 113" width="7.96" height="8.075" transform="translate(80.734 149.18)" fill="#fff"/>
    <rect id="Rectangle_114" data-name="Rectangle 114" width="7.96" height="8.075" transform="translate(98.348 149.18)" fill="#fff"/>
    <g id="Group_250" data-name="Group 250">
      <path id="Path_368" data-name="Path 368" d="M93.619,180.661q-10.544,0-21.087,0c-1.4,0-1.531-.133-1.531-1.577q0-36.447,0-72.894v-.618c0-1.895,0-1.895,1.859-1.921.256,0,.5-.019.773-.038l.428-.027a1.378,1.378,0,0,0,1.29-1.384v-1.844c0-1.382,0-2.751,0-4.12,0-1.285.268-1.425,1.305-1.426Q85.1,94.8,93.543,94.8q8.554,0,17.107.008c1.038,0,1.28.254,1.29,1.355.013,1.369.01,2.722.007,4.154,0,.637,0,1.285,0,1.95a1.378,1.378,0,0,0,1.366,1.386c.241,0,.471,0,.694-.007s.391-.006.57-.006c.242,0,.438.005.619.017,1.087.068,1.088.611,1.089.97.019,5.765.007,11.628,0,17.3l-.005,3a.275.275,0,0,1-.273.276h-1.09a.275.275,0,0,1-.273-.277V106.871a1.378,1.378,0,0,0-1.366-1.386H74.059a1.378,1.378,0,0,0-1.366,1.386v70.587a1.378,1.378,0,0,0,1.366,1.386h8.628a1.378,1.378,0,0,0,1.366-1.386l0-4.223c0-2.095-.005-4.261.008-6.389.006-.948.254-1.208,1.155-1.213,2.872-.014,5.724-.02,8.479-.02,2.845,0,5.663.007,8.378.022.708,0,1.138.1,1.148,1.379.016,2.07.013,4.178.009,6.217v.048q0,1.335,0,2.67v1.487a1.378,1.378,0,0,0,1.366,1.386H113.2a1.378,1.378,0,0,0,1.366-1.386v-13.6a.275.275,0,0,1,.273-.277H116.3q.007,7.769,0,15.538c0,1.381-.18,1.555-1.593,1.555Zm-6.448-13.2a1.378,1.378,0,0,0-1.366,1.386v8.609a1.377,1.377,0,0,0,1.366,1.386h4.153a1.377,1.377,0,0,0,1.366-1.386v-8.609a1.378,1.378,0,0,0-1.366-1.386Zm8.759-.007a1.378,1.378,0,0,0-1.366,1.386v8.594a1.378,1.378,0,0,0,1.366,1.386h4.092a1.378,1.378,0,0,0,1.366-1.386V168.84a1.378,1.378,0,0,0-1.366-1.386ZM78.394,96.672a1.378,1.378,0,0,0-1.366,1.386v4.1a1.378,1.378,0,0,0,1.366,1.386h30.38a1.378,1.378,0,0,0,1.366-1.386v-4.1a1.378,1.378,0,0,0-1.366-1.386Z" fill="#007afe" stroke="#007afe" stroke-miterlimit="10" stroke-width="0.275"/>
      <path id="Path_369" data-name="Path 369" d="M146.019,160.719a.784.784,0,0,1-.32-.085c-.27-.123-.576-.263-.557-1.254.026-1.4.02-2.773.015-4.224v-.171q0-.819,0-1.654v-1.386H125.007v1.386q0,.829,0,1.646v.156c-.006,1.441-.012,2.8.016,4.213.021,1.05-.307,1.185-.6,1.3a.747.747,0,0,1-.282.067c-.218,0-.529-.209-.952-.639q-3.842-3.908-7.69-7.809l-.629-.638q-3.067-3.112-6.133-6.226c-.939-.954-.941-1.106-.035-2.028q4.709-4.792,9.429-9.573l5.114-5.188c.4-.4.688-.6.895-.6a.763.763,0,0,1,.307.081c.275.125.586.266.57,1.242-.023,1.416-.018,2.781-.013,4.226v.187q0,.806,0,1.625v1.386h20.145v-1.386q0-.813,0-1.616V133.6c.005-1.379.011-2.806-.015-4.219-.018-1,.285-1.145.553-1.271a.768.768,0,0,1,.319-.087c.21,0,.5.187.876.572q2.275,2.307,4.552,4.612l.12.122c3.269,3.312,6.65,6.737,9.964,10.113.8.82.806,1.045.014,1.853q-4.662,4.749-9.338,9.484l-.076.077q-2.61,2.646-5.218,5.294C146.528,160.531,146.237,160.719,146.019,160.719Zm-10.864-10.557c3.544,0,7.149.009,10.714.027.568,0,.891.052.924,1.035.021.653.016,1.31.01,1.945,0,.3,0,.571,0,.836v3.335l12.838-12.962-12.835-13v3.343c0,.245,0,.5,0,.757,0,.6.005,1.2-.005,1.792-.02,1.149-.191,1.324-1.306,1.34-.74.01-1.48.013-2.219.013q-.841,0-1.681,0c-.573,0-1.139,0-1.7,0l-8.554,0q-3.261,0-6.524-.007c-1.27,0-1.433-.164-1.448-1.434-.007-.571-.006-1.142,0-1.749l0-.9v-3.348L110.625,144.1l12.737,13.084v-3.376c0-.2,0-.425,0-.659v-.039c-.005-.584-.011-1.239.009-1.88.031-.991.319-1.037.916-1.04C127.89,150.171,131.549,150.162,135.155,150.162Z" fill="#007afe" stroke="#007afe" stroke-miterlimit="10" stroke-width="0.275"/>
      <path id="Path_370" data-name="Path 370" d="M99.792,123.108c-.52,0-1.039,0-1.559-.015-.805-.018-1.081-.283-1.094-1.05-.045-2.586-.046-5.329,0-8.384.011-.826.26-1.1,1.026-1.113,1.386-.03,2.8-.044,4.191-.044s2.79.014,4.187.044c.772.016,1.023.285,1.035,1.107.039,2.638.04,5.417,0,8.259-.012.906-.284,1.172-1.213,1.185-.517.008-1.034.01-1.552.01q-.64,0-1.28,0-.619,0-1.238,0h-.035q-.621,0-1.241,0C100.609,123.106,100.2,123.108,99.792,123.108Zm-.863-1.786h6.85V114.34h-6.85Z" fill="#007afe" stroke="#007afe" stroke-miterlimit="10" stroke-width="0.275"/>
      <path id="Path_371" data-name="Path 371" d="M87.467,123.108c-.418,0-.837,0-1.255,0s-.832,0-1.248,0c-.453,0-.88,0-1.308,0h-.072c-.4,0-.8,0-1.2,0-.536,0-1.072,0-1.608-.016-.791-.017-1.061-.28-1.068-1.042-.028-2.908-.027-5.777,0-8.525.008-.8.3-.951.87-.965,1.442-.036,2.911-.054,4.367-.054,1.4,0,2.833.017,4.252.051.58.014.859.163.873.971.053,3.086.051,5.909-.006,8.628-.011.535-.093.916-1.046.937C88.5,123.1,87.985,123.108,87.467,123.108Zm-6.041-1.8h6.9v-6.975h-6.9Z" fill="#007afe" stroke="#007afe" stroke-miterlimit="10" stroke-width="0.275"/>
      <path id="Path_372" data-name="Path 372" d="M87.477,158.509c-.419,0-.838,0-1.257-.007h-.046c-.4,0-.8-.007-1.207-.007h-.036c-.428,0-.856,0-1.284.007s-.841.007-1.261.007c-.614,0-1.118-.008-1.587-.024-.893-.032-1.087-.236-1.093-1.149-.02-2.97-.02-5.676,0-8.272.007-.861.244-1.1,1.1-1.1q2.034-.016,4.07-.016t4.084.015c.893.006,1.1.212,1.115,1.1.047,2.821.046,5.638,0,8.375-.013.8-.149,1.021-1.075,1.055C88.554,158.5,88.068,158.509,87.477,158.509Zm-6.07-1.809h6.928V149.74H81.408Z" fill="#007afe" stroke="#007afe" stroke-miterlimit="10" stroke-width="0.275"/>
      <path id="Path_373" data-name="Path 373" d="M84.856,140.775c-1.41,0-2.83-.007-4.219-.021-.695-.007-.92-.25-.927-1-.028-3.061-.028-5.849,0-8.522.007-.627.158-.929,1-.948.479-.011.993-.016,1.62-.016q.581,0,1.162,0h.074c.418,0,.834,0,1.249,0h.079c.394,0,.788,0,1.181,0h.079c.44,0,.88,0,1.32,0,.535,0,1.07,0,1.6.015.923.02.972.3.983.826.064,2.978.061,5.964-.007,8.873-.011.46-.079.762-.887.77C87.734,140.767,86.284,140.775,84.856,140.775Zm-3.422-1.714h6.9v-7.066h-6.9Z" fill="#007afe" stroke="#007afe" stroke-miterlimit="10" stroke-width="0.275"/>
      <path id="Path_374" data-name="Path 374" d="M101.916,158.491c-1.421,0-2.719-.013-3.968-.039-.409-.009-.789-.125-.8-.908-.051-2.817-.052-5.721,0-8.633.01-.609.278-.924.794-.938.77-.021,1.608-.03,2.638-.03.636,0,1.279,0,1.933.007l.73,0v1.758H98.93V156.7h6.848v-4.36h1.751l.007.74c.017,1.684.034,3.267-.049,4.85-.018.335-.236.509-.649.515C104.942,158.477,103.379,158.491,101.916,158.491Z" fill="#007afe" stroke="#007afe" stroke-miterlimit="10" stroke-width="0.275"/>
      <path id="Path_375" data-name="Path 375" d="M100.441,140.769c-1.076,0-1.951-.021-2.756-.067-.146-.008-.534-.03-.547-.914-.045-3.089-.045-5.871,0-8.507.011-.656.183-.991,1.092-1q2.016-.017,4.033-.017,2.123,0,4.246.018c.989.008,1.01.466,1.02.686.069,1.524.055,3.044.04,4.654q0,.35-.007.7h-1.821V132H98.927v7.03h4.325v1.717l-.795.009C101.777,140.761,101.106,140.769,100.441,140.769Z" fill="#007afe" stroke="#007afe" stroke-miterlimit="10" stroke-width="0.275"/>
    </g>
  </g>
</svg>
