<svg xmlns="http://www.w3.org/2000/svg" width="74" height="66" viewBox="0 0 74 66">
  <g id="Vector_Smart_Object" data-name="Vector Smart Object" transform="translate(-117.38 -108.286)">
    <ellipse id="Ellipse_66" data-name="Ellipse 66" cx="4.6" cy="5.189" rx="4.6" ry="5.189" transform="translate(139.727 163.492)" fill="#fff" stroke="#fff" stroke-miterlimit="10" stroke-width="0.209"/>
    <ellipse id="Ellipse_67" data-name="Ellipse 67" cx="4.6" cy="5.189" rx="4.6" ry="5.189" transform="translate(164.508 163.492)" fill="#fff" stroke="#fff" stroke-miterlimit="10" stroke-width="0.209"/>
    <path id="Path_264" data-name="Path 264" d="M175.668,129.659l-9.231-3.295H135.18l-.748-5.46-1.176-10.946-1.924-.8-10.476-.531-1.934,1.106-.952,1.549,1.71,2.549h2.886l3.955.106,1.5.743,4.81,43.853,46.858.531,2.423-1.7,5.666-26.97Zm2.508,24.136-40.414-.283-2.439-22.3h46.965Z" fill="#b8d8fe"/>
    <ellipse id="Ellipse_68" data-name="Ellipse 68" cx="12.948" cy="12.6" rx="12.948" ry="12.6" transform="translate(165.228 108.631)" fill="#007afe"/>
    <g id="Group_230" data-name="Group 230">
      <path id="Path_265" data-name="Path 265" d="M189.06,128.62a8.238,8.238,0,0,0-1.3,3.209c-1.606,8.39-3.23,16.806-4.745,24.652-.382,1.979-1.48,2.861-3.56,2.861h-21.9l-25.5,0a4.778,4.778,0,0,0-3.417,1.334,4.234,4.234,0,0,0-1.232,3.044,4.309,4.309,0,0,0,4.037,4.307c.783.03,1.624.044,2.649.044.67,0,1.341-.006,2.016-.012s1.371-.012,2.058-.012h.489l.12-.471a5.715,5.715,0,0,1,2.51-3.612,5.645,5.645,0,0,1,3.078-.888h.134c2.529.052,4.307,1.54,5.437,4.55l.152.406h13.645l.12-.472a5.685,5.685,0,0,1,5.584-4.486h.133c2.539.052,4.32,1.548,5.446,4.574l.152.408h3.258q.963,0,1.929,0c.943,0,.949.446.952.612a.519.519,0,0,1-.135.394,1.139,1.139,0,0,1-.785.233q-.969,0-1.94,0h-3.363l-.12.47a5.755,5.755,0,0,1-2.514,3.625,5.645,5.645,0,0,1-3.077.887h-.136c-2.521-.053-4.3-1.542-5.439-4.551l-.153-.4H150l-.121.47a5.716,5.716,0,0,1-2.508,3.6,5.647,5.647,0,0,1-3.076.886h-.138c-2.513-.053-4.3-1.551-5.448-4.579l-.154-.4h-.434q-.959,0-1.924,0c-.646,0-1.29,0-1.935,0-.911,0-1.665,0-2.373-.014a5.592,5.592,0,0,1-1.374-11c.243-.065.5-.114.783-.165.151-.028.3-.056.461-.088l.563-.113-4.846-43.418h-1.485q-.729,0-1.459,0h-.286q-.733,0-1.466,0c-.842,0-1.537,0-2.189-.016a3.2,3.2,0,0,1-3.213-3.117,3.168,3.168,0,0,1,3.276-3.1q2.392-.007,4.785-.007,2.463,0,4.925.006a3.279,3.279,0,0,1,3.518,3c.284,2.234.516,4.509.741,6.709q.151,1.477.305,2.943c.1.892.192,1.785.29,2.684l.223,2.063h30.146l-.121-.726c-.038-.226-.077-.45-.117-.672-.085-.481-.162-.918-.218-1.36a12.931,12.931,0,0,1,2.568-9.477,12.755,12.755,0,0,1,8.38-5,14.22,14.22,0,0,1,2.01-.144,13.069,13.069,0,0,1,13.069,10.927A12.181,12.181,0,0,1,189.06,128.62Zm-19.682,35.706a4.414,4.414,0,0,0-4.362,4.336,4.387,4.387,0,0,0,4.386,4.373h.024a4.379,4.379,0,0,0,4.358-4.334,4.31,4.31,0,0,0-1.281-3.088,4.389,4.389,0,0,0-3.119-1.288Zm-25.114,0a4.355,4.355,0,1,0,3.168,7.423,4.307,4.307,0,0,0,1.279-3.089,4.389,4.389,0,0,0-4.4-4.334h-.044ZM123.84,113.269q1.358,0,2.715,0c1.47,0,2.127.614,2.27,2.105.081.843.178,1.7.273,2.52l.907,8.016q.655,5.788,1.306,11.577c.52,4.635,1.036,9.27,1.555,13.934l.738,6.622.537.024.226.012c.151.009.279.015.408.015H156.6l22.987,0a1.95,1.95,0,0,0,2.191-1.856l1.294-6.669q1.211-6.242,2.42-12.485c.167-.861.326-1.723.493-2.624l.482-2.591-1.114.531c-.26.123-.5.246-.737.365a10.931,10.931,0,0,1-1.357.615,1.875,1.875,0,0,0-1.322,1.664c-1.037,6.334-2.114,12.74-3.032,18.171-.193,1.144-.193,1.144-1.389,1.144H138.264l-.332,0c-.064,0-.129,0-.194,0-.55-.02-.726-.179-.787-.71-.047-.415-.087-.831-.126-1.247-.022-.226-.043-.452-.065-.679l-.6-5.949q-.691-6.892-1.375-13.785c-.072-.73.013-.992.1-1.084s.34-.2,1.085-.2h32.673l-.641-.967c-.149-.225-.3-.434-.437-.633a7.812,7.812,0,0,1-.7-1.114,1.739,1.739,0,0,0-1.782-1.035c-6.685.011-13.3.012-18.316.012H135.3c-.879,0-.969-.076-1.069-.9-.163-1.339-.306-2.707-.444-4.029l-.112-1.064q-.183-1.733-.363-3.466l-.016-.153q-.3-2.832-.6-5.664a2.154,2.154,0,0,0-2.285-2.15q-2.16-.008-4.32-.01c-1.982,0-3.775.007-5.481.022a1.921,1.921,0,0,0-1.462.651,2.216,2.216,0,0,0-.4,1.694,1.882,1.882,0,0,0,2,1.376Zm45.017,39.813h8.793l1.02-6.148h-9.131Zm-10.051,0h8.777l.694-6.148H158.8Zm-10.15-.006h8.787v-6.14h-9.48Zm-10.5-.012h9.232l-.683-6.117H137.53Zm20.634-7.451h9.641l.683-6.135H158.784Zm10.9-.007H178.9l1.034-6.148h-9.551Zm-21.86-.008h9.61v-6.147H147.112Zm-10.426-.014h9.163l-.709-6.115h-9.044Zm21.4-7.434h10.47l.682-6.159H158.793Zm-11.814-.013h10.48v-6.142H146.287Zm23.552,0h9.619l.676-3.956-.851.119a13.1,13.1,0,0,1-8.008-1.4l-.809-.408Zm-33.871,0h9.049l-.689-6.144h-8.955Zm41.491-28.6a11.829,11.829,0,1,0,.07,23.657h.056a11.829,11.829,0,1,0-.073-23.658h-.052Z" fill="#007afe"/>
      <path id="Path_266" data-name="Path 266" d="M178.162,129.45c-.4-.009-.606-.3-.608-.877-.005-1.178,0-2.355,0-3.532v-3.056h-6l-.26,0-.244,0c-.107,0-.213,0-.319-.008-.429-.026-.68-.245-.69-.6a.583.583,0,0,1,.156-.434.708.708,0,0,1,.515-.194c.714-.009,1.507-.013,2.5-.013l4.349,0v-6.068c0-.175,0-.349,0-.524.015-.866.468-.871.617-.874.516,0,.628.455.63.836.007,1.189.006,2.378,0,3.568v3.061h2.3l2.576,0c.62,0,1.239,0,1.858.008.291,0,.78.087.778.618s-.492.614-.784.616c-.846.005-1.693.007-2.546.007l-4.185,0v4.836c0,.574,0,1.149,0,1.723-.005.6-.213.907-.617.907Z" fill="#fff" stroke="#fff" stroke-miterlimit="10" stroke-width="0.209"/>
    </g>
  </g>
</svg>
