<svg xmlns="http://www.w3.org/2000/svg" width="66.006" height="66" viewBox="0 0 66.006 66">
  <g id="Vector_Smart_Object" data-name="Vector Smart Object" transform="translate(-70.956 -93.83)">
    <path id="Path_249" data-name="Path 249" d="M117,145.466l10.762,10.7s4.36,5.116,7.8,1.442a4.292,4.292,0,0,0-1.157-6.047l-11.714-11.3Z" fill="#fff" stroke="#000" stroke-miterlimit="10" stroke-width="0.273"/>
    <path id="Path_250" data-name="Path 250" d="M96.726,95.05a24.476,24.476,0,1,0,24.835,24.473A24.656,24.656,0,0,0,96.726,95.05Zm-.06,42.426a17.953,17.953,0,1,1,17.943-17.953A17.948,17.948,0,0,1,96.666,137.477Z" fill="#b8d8fe"/>
    <path id="Path_251" data-name="Path 251" d="M132.169,159.419a4.715,4.715,0,0,1-3.338-1.5c-3.455-3.444-6.932-6.926-10.295-10.293l-2.618-2.621c-.956-.957-1.909-1.916-2.871-2.885l-1.822-1.833-.54.3-.187.1c-.146.079-.282.152-.424.242A24.779,24.779,0,0,1,96.714,144.8c-.308,0-.616-.005-.922-.016a25.373,25.373,0,0,1-23.182-17.57,24.322,24.322,0,0,1-.314-14.3A25.054,25.054,0,0,1,83.244,98.147a24.664,24.664,0,0,1,11.3-3.806,1.678,1.678,0,0,0,.431-.1h3.462c.2.027.4.052.6.078.453.058.919.117,1.364.2,8.431,1.474,14.638,5.857,18.451,13.029,4.45,8.372,4.21,16.878-.715,25.281a6.5,6.5,0,0,1-.5.738l-.558.736.119-.372c.088.051.7.664.9.876.063.064.25.2.282.233q2.9,2.895,5.8,5.8l.272.272c3.255,3.256,6.62,6.623,9.943,9.922a6.675,6.675,0,0,1,2.156,3.421v1.13a5,5,0,0,1-1.447,2.686A4.483,4.483,0,0,1,132.169,159.419Zm-14.045-14.3a.9.9,0,0,0,.308,1.033q5.533,5.533,11.067,11.064a6.14,6.14,0,0,0,.559.5,3.387,3.387,0,0,0,4.523-.294,3.435,3.435,0,0,0-.168-4.983c-1.882-1.894-3.837-3.848-5.563-5.572l-.14-.14-2.316-2.316-3.8-3.807-4.045,4.007h0Zm-5.848-5.245,4.747,4.735,4.71-4.657-4.741-4.782ZM96.6,95.217a24.306,24.306,0,0,0,.061,48.613h.085a24.307,24.307,0,0,0-.042-48.613Zm20.961,50.04" fill="#007afe" stroke="#007afe" stroke-miterlimit="10" stroke-width="0.82"/>
    <path id="Path_252" data-name="Path 252" d="M96.632,138.179a18.686,18.686,0,0,1-18.616-18.633,18.721,18.721,0,0,1,18.627-18.679H96.7A18.686,18.686,0,0,1,115.315,119.5a18.721,18.721,0,0,1-18.627,18.678Zm0-35.9a17.243,17.243,0,0,0,0,34.486H96.7a17.243,17.243,0,0,0,0-34.486Z" fill="#007afe" stroke="#007afe" stroke-miterlimit="10" stroke-width="0.137"/>
    <path id="Path_253" data-name="Path 253" d="M108.107,115.069c-.281,0-.466-.326-.552-.521a10.715,10.715,0,0,0-8.119-6.529,10.93,10.93,0,0,0-1.527-.157c-.542-.03-.81-.214-.807-.547,0-.431.433-.522.792-.522h.179c5.069.454,8.492,2.865,10.461,7.372a.8.8,0,0,1,.059.6.461.461,0,0,1-.269.251A.582.582,0,0,1,108.107,115.069Z" fill="#007afe"/>
    <path id="Path_254" data-name="Path 254" d="M108.86,119.087a.524.524,0,0,1,0-1.047.531.531,0,0,1,.368.168.518.518,0,0,1,.156.361.554.554,0,0,1-.522.518Z" fill="#007afe"/>
    <line id="Line_183" data-name="Line 183" x1="5.718" y2="5.209" transform="translate(117.214 140.257)" fill="#007afe" stroke="#007afe" stroke-miterlimit="10" stroke-width="0.82"/>
  </g>
</svg>
