<svg xmlns="http://www.w3.org/2000/svg" xmlns:xlink="http://www.w3.org/1999/xlink" width="169.804" height="31.445" viewBox="0 0 169.804 31.445">
  <defs>
    <clipPath id="clip-path">
      <rect id="Rectangle_141" data-name="Rectangle 141" width="169.804" height="31.445" transform="translate(0 0)" fill="none"/>
    </clipPath>
  </defs>
  <g id="Vector_Smart_Object" data-name="Vector Smart Object" transform="translate(0 0)">
    <rect id="Rectangle_137" data-name="Rectangle 137" width="5.364" height="5.376" transform="translate(0 14.141)"/>
    <rect id="Rectangle_138" data-name="Rectangle 138" width="5.365" height="5.377" transform="translate(17.932 14.141)"/>
    <rect id="Rectangle_139" data-name="Rectangle 139" width="5.365" height="5.377" transform="translate(36.706 14.141)"/>
    <rect id="Rectangle_140" data-name="Rectangle 140" width="5.365" height="5.377" transform="translate(55.097 14.141)"/>
    <g id="Group_270" data-name="Group 270">
      <g id="Group_269" data-name="Group 269" clip-path="url(#clip-path)">
        <path id="Path_431" data-name="Path 431" d="M92.153,1.511a4.258,4.258,0,0,0-1.51.335,2.9,2.9,0,0,0-1.048.9,3.184,3.184,0,0,0-.544,1.007,5.943,5.943,0,0,0-.249,1.4,26.489,26.489,0,0,0-.116,2.661V23.753a19.993,19.993,0,0,0,.2,3.31,3.873,3.873,0,0,0,.71,1.732,3.37,3.37,0,0,0,2.558,1.255v.47H81.625v-.47a4.116,4.116,0,0,0,1.542-.357,3.006,3.006,0,0,0,1.048-.9,4.15,4.15,0,0,0,.7-1.763,20.71,20.71,0,0,0,.189-3.278V4.41l-8.5,26.11h-.347L67.814,4.8V23.753A20.651,20.651,0,0,0,68,27.042a4.128,4.128,0,0,0,.7,1.753,2.837,2.837,0,0,0,1.047.909,4.231,4.231,0,0,0,1.527.347v.47h-7.6v-.47a4.215,4.215,0,0,0,1.527-.347,2.843,2.843,0,0,0,1.049-.909,4.162,4.162,0,0,0,.7-1.763,20.583,20.583,0,0,0,.189-3.278V7.807q0-1-.047-1.883a7.828,7.828,0,0,0-.38-2.337,3.212,3.212,0,0,0-1.13-1.5,3.857,3.857,0,0,0-1.908-.574V1.04h7.157l7.138,23.1,7.4-23.1h6.78Z"/>
        <path id="Path_432" data-name="Path 432" d="M92.153,1.511a4.258,4.258,0,0,0-1.51.335,2.9,2.9,0,0,0-1.048.9,3.184,3.184,0,0,0-.544,1.007,5.943,5.943,0,0,0-.249,1.4,26.489,26.489,0,0,0-.116,2.661V23.753a19.993,19.993,0,0,0,.2,3.31,3.873,3.873,0,0,0,.71,1.732,3.37,3.37,0,0,0,2.558,1.255v.47H81.625v-.47a4.116,4.116,0,0,0,1.542-.357,3.006,3.006,0,0,0,1.048-.9,4.15,4.15,0,0,0,.7-1.763,20.71,20.71,0,0,0,.189-3.278V4.41l-8.5,26.11h-.347L67.814,4.8V23.753A20.651,20.651,0,0,0,68,27.042a4.128,4.128,0,0,0,.7,1.753,2.837,2.837,0,0,0,1.047.909,4.231,4.231,0,0,0,1.527.347v.47h-7.6v-.47a4.215,4.215,0,0,0,1.527-.347,2.843,2.843,0,0,0,1.049-.909,4.162,4.162,0,0,0,.7-1.763,20.583,20.583,0,0,0,.189-3.278V7.807q0-1-.047-1.883a7.828,7.828,0,0,0-.38-2.337,3.212,3.212,0,0,0-1.13-1.5,3.857,3.857,0,0,0-1.908-.574V1.04h7.157l7.138,23.1,7.4-23.1h6.78Z" fill="none" stroke="#000" stroke-width="0.528"/>
        <path id="Path_433" data-name="Path 433" d="M93.5,20.255a10.963,10.963,0,0,1,2.24-6.77,7.669,7.669,0,0,1,13.01,0,11.067,11.067,0,0,1,2.24,6.793,11.064,11.064,0,0,1-2.129,6.676,7.869,7.869,0,0,1-13.231,0,10.783,10.783,0,0,1-1.578-3.139,11.668,11.668,0,0,1-.551-3.56m3.393-.269a14.951,14.951,0,0,0,1.458,6.905q1.643,3.16,4.016,3.16a3.271,3.271,0,0,0,1.962-.7,5.92,5.92,0,0,0,1.643-1.966,12.433,12.433,0,0,0,1.176-3.289,17.266,17.266,0,0,0,.449-3.826,16.284,16.284,0,0,0-.476-3.874,12.952,12.952,0,0,0-1.279-3.358q-1.532-2.645-3.754-2.644-2.112,0-3.643,2.785a13.823,13.823,0,0,0-1.55,6.811"/>
        <path id="Path_434" data-name="Path 434" d="M93.5,20.255a10.963,10.963,0,0,1,2.24-6.77,7.669,7.669,0,0,1,13.01,0,11.067,11.067,0,0,1,2.24,6.793,11.064,11.064,0,0,1-2.129,6.676,7.869,7.869,0,0,1-13.231,0,10.783,10.783,0,0,1-1.578-3.139A11.668,11.668,0,0,1,93.5,20.255Zm3.393-.269a14.951,14.951,0,0,0,1.458,6.905q1.643,3.16,4.016,3.16a3.271,3.271,0,0,0,1.962-.7,5.92,5.92,0,0,0,1.643-1.966,12.433,12.433,0,0,0,1.176-3.289,17.266,17.266,0,0,0,.449-3.826,16.284,16.284,0,0,0-.476-3.874,12.952,12.952,0,0,0-1.279-3.358q-1.532-2.645-3.754-2.644-2.112,0-3.643,2.785A13.823,13.823,0,0,0,96.893,19.986Z" fill="none" stroke="#000" stroke-width="0.528"/>
        <path id="Path_435" data-name="Path 435" d="M117.926,14.581a7.291,7.291,0,0,1,1.488-1.617,5.719,5.719,0,0,1,3.425-1.03,6.835,6.835,0,0,1,4.93,2.051,9.414,9.414,0,0,1,2.606,7.1,10.1,10.1,0,0,1-2.5,7.229,7.256,7.256,0,0,1-5.537,2.3,7.344,7.344,0,0,1-3-.549l-1.044-.485a1.924,1.924,0,0,0-.765-.19q-.952,0-1.678,1.785h-.758V6.27a6.552,6.552,0,0,0-.663-3.408,2.454,2.454,0,0,0-2.234-1.03v-.5l5.73-.892Zm0,6.413a36.032,36.032,0,0,0,.222,4.17,11.566,11.566,0,0,0,.574,2.772,3.615,3.615,0,0,0,1.269,1.629,3.252,3.252,0,0,0,1.917.593,4.307,4.307,0,0,0,3.733-2.454,11.976,11.976,0,0,0,1.473-6.244,14.5,14.5,0,0,0-.482-3.778,9.421,9.421,0,0,0-1.371-3.037,5.429,5.429,0,0,0-1.557-1.576,3.213,3.213,0,0,0-1.741-.54,3.114,3.114,0,0,0-2,.751,4.435,4.435,0,0,0-1.371,1.958,17.845,17.845,0,0,0-.667,5.757"/>
        <path id="Path_436" data-name="Path 436" d="M117.926,14.581a7.291,7.291,0,0,1,1.488-1.617,5.719,5.719,0,0,1,3.425-1.03,6.835,6.835,0,0,1,4.93,2.051,9.414,9.414,0,0,1,2.606,7.1,10.1,10.1,0,0,1-2.5,7.229,7.256,7.256,0,0,1-5.537,2.3,7.344,7.344,0,0,1-3-.549l-1.044-.485a1.924,1.924,0,0,0-.765-.19q-.952,0-1.678,1.785h-.758V6.27a6.552,6.552,0,0,0-.663-3.408,2.454,2.454,0,0,0-2.234-1.03v-.5l5.73-.892Zm0,6.413a36.032,36.032,0,0,0,.222,4.17,11.566,11.566,0,0,0,.574,2.772,3.615,3.615,0,0,0,1.269,1.629,3.252,3.252,0,0,0,1.917.593,4.307,4.307,0,0,0,3.733-2.454,11.976,11.976,0,0,0,1.473-6.244,14.5,14.5,0,0,0-.482-3.778,9.421,9.421,0,0,0-1.371-3.037,5.429,5.429,0,0,0-1.557-1.576,3.213,3.213,0,0,0-1.741-.54,3.114,3.114,0,0,0-2,.751,4.435,4.435,0,0,0-1.371,1.958A17.845,17.845,0,0,0,117.926,20.994Z" fill="none" stroke="#000" stroke-width="0.528"/>
        <path id="Path_437" data-name="Path 437" d="M134,12.692l5.4-.759V24.144l.018,1.606a10.433,10.433,0,0,0,.151,2.1,2.257,2.257,0,0,0,.579,1.108,3.609,3.609,0,0,0,1.922.866v.429h-8.265v-.429a4.417,4.417,0,0,0,1.605-.474,2.133,2.133,0,0,0,.785-1.046,5.1,5.1,0,0,0,.288-1.467q.084-.983.084-2.841V18.782q0-2.174-.093-3.051a3.628,3.628,0,0,0-.413-1.426,2.109,2.109,0,0,0-.769-.855A3.04,3.04,0,0,0,134,13.122Zm3.9-8.385a1.568,1.568,0,0,1-1.215-.529,1.915,1.915,0,0,1-.481-1.336,1.9,1.9,0,0,1,.489-1.325,1.619,1.619,0,0,1,2.414,0,1.908,1.908,0,0,1,.489,1.325,1.915,1.915,0,0,1-.481,1.336,1.568,1.568,0,0,1-1.215.529"/>
        <path id="Path_438" data-name="Path 438" d="M134,12.692l5.4-.759V24.144l.018,1.606a10.433,10.433,0,0,0,.151,2.1,2.257,2.257,0,0,0,.579,1.108,3.609,3.609,0,0,0,1.922.866v.429h-8.265v-.429a4.417,4.417,0,0,0,1.605-.474,2.133,2.133,0,0,0,.785-1.046,5.1,5.1,0,0,0,.288-1.467q.084-.983.084-2.841V18.782q0-2.174-.093-3.051a3.628,3.628,0,0,0-.413-1.426,2.109,2.109,0,0,0-.769-.855A3.04,3.04,0,0,0,134,13.122Zm3.9-8.385a1.568,1.568,0,0,1-1.215-.529,1.915,1.915,0,0,1-.481-1.336,1.9,1.9,0,0,1,.489-1.325,1.619,1.619,0,0,1,2.414,0,1.908,1.908,0,0,1,.489,1.325,1.915,1.915,0,0,1-.481,1.336A1.568,1.568,0,0,1,137.9,4.307Z" fill="none" stroke="#000" stroke-width="0.528"/>
        <path id="Path_439" data-name="Path 439" d="M144.489,1.2l5.4-.76V24.121l.019,1.612a10.64,10.64,0,0,0,.149,2.111,2.3,2.3,0,0,0,.579,1.115,3.621,3.621,0,0,0,1.921.869v.429h-8.266v-.429a4.421,4.421,0,0,0,1.607-.478,2.13,2.13,0,0,0,.785-1.05,5.091,5.091,0,0,0,.289-1.473q.084-.986.085-2.852V7.329q0-2.163-.094-3.053a3.667,3.667,0,0,0-.413-1.442,2.04,2.04,0,0,0-.768-.848,3.176,3.176,0,0,0-1.294-.319Z"/>
        <path id="Path_440" data-name="Path 440" d="M144.489,1.2l5.4-.76V24.121l.019,1.612a10.64,10.64,0,0,0,.149,2.111,2.3,2.3,0,0,0,.579,1.115,3.621,3.621,0,0,0,1.921.869v.429h-8.266v-.429a4.421,4.421,0,0,0,1.607-.478,2.13,2.13,0,0,0,.785-1.05,5.091,5.091,0,0,0,.289-1.473q.084-.986.085-2.852V7.329q0-2.163-.094-3.053a3.667,3.667,0,0,0-.413-1.442,2.04,2.04,0,0,0-.768-.848,3.176,3.176,0,0,0-1.294-.319Z" fill="none" stroke="#000" stroke-width="0.528"/>
        <path id="Path_441" data-name="Path 441" d="M158.209,17.9q-.066,1.106-.065,1.6a15.657,15.657,0,0,0,.472,3.841,10.225,10.225,0,0,0,1.291,3.12,6.245,6.245,0,0,0,2.068,1.989,5.056,5.056,0,0,0,2.591.723,4.521,4.521,0,0,0,1.9-.411,4.074,4.074,0,0,0,1.493-1.142,6.92,6.92,0,0,0,1.151-2.558l.4.158a6.586,6.586,0,0,1-2.08,4.007,6.342,6.342,0,0,1-4.242,1.35,8.235,8.235,0,0,1-3.935-.878,7.407,7.407,0,0,1-2.779-2.7,11.613,11.613,0,0,1-1.586-6.262,10.493,10.493,0,0,1,3.006-7.95,7.006,7.006,0,0,1,4.984-2.094,6.06,6.06,0,0,1,2.761.639,5.923,5.923,0,0,1,2.147,1.851,7.828,7.828,0,0,1,1.363,4.713Zm8.135-.879a9.965,9.965,0,0,0-.686-3.455,4.511,4.511,0,0,0-1.338-1.739,2.893,2.893,0,0,0-1.782-.639,3.427,3.427,0,0,0-2.8,1.661,8.23,8.23,0,0,0-1.42,4.172Z"/>
        <path id="Path_442" data-name="Path 442" d="M158.209,17.9q-.066,1.106-.065,1.6a15.657,15.657,0,0,0,.472,3.841,10.225,10.225,0,0,0,1.291,3.12,6.245,6.245,0,0,0,2.068,1.989,5.056,5.056,0,0,0,2.591.723,4.521,4.521,0,0,0,1.9-.411,4.074,4.074,0,0,0,1.493-1.142,6.92,6.92,0,0,0,1.151-2.558l.4.158a6.586,6.586,0,0,1-2.08,4.007,6.342,6.342,0,0,1-4.242,1.35,8.235,8.235,0,0,1-3.935-.878,7.407,7.407,0,0,1-2.779-2.7,11.613,11.613,0,0,1-1.586-6.262,10.493,10.493,0,0,1,3.006-7.95,7.006,7.006,0,0,1,4.984-2.094,6.06,6.06,0,0,1,2.761.639,5.923,5.923,0,0,1,2.147,1.851,7.828,7.828,0,0,1,1.363,4.713Zm8.135-.879a9.965,9.965,0,0,0-.686-3.455,4.511,4.511,0,0,0-1.338-1.739,2.893,2.893,0,0,0-1.782-.639,3.427,3.427,0,0,0-2.8,1.661,8.23,8.23,0,0,0-1.42,4.172Z" fill="none" stroke="#000" stroke-width="0.528"/>
        <path id="Path_443" data-name="Path 443" d="M5.355,30.045v-1.53h4.719V.691H9.652a8.346,8.346,0,0,0-4.2,1.365c-1.826,1.2-4,3.722-4.107,8.941H.6V0H23.488V11h-.8C22.514,9.037,21.354.681,14.411.681h-.422V28.515h4.724v1.53Z"/>
      </g>
    </g>
  </g>
</svg>
